[h264 @ 0x5564486f7b40] Reinit context to 1280x720, pix_fmt: yuv420p
Input #0, mov,mp4,m4a,3gp,3g2,mj2, from '/var/www/html/project/media/video/original/20220829_Ancona_Recupero_Barca.mp4':
  Metadata:
    major_brand     : mp42
    minor_version   : 1
    compatible_brands: isommp41mp42
    creation_time   : 2022-08-29T14:30:26.000000Z
  Duration: 00:00:35.80, start: 0.000000, bitrate: 4153 kb/s
    Stream #0:0(eng): Audio: aac (LC) (mp4a / 0x6134706D), 48000 Hz, stereo, fltp, 62 kb/s (default)
    Metadata:
      creation_time   : 2022-08-29T14:30:26.000000Z
      handler_name    : Core Media Audio
    Stream #0:1(und): Video: h264 (High), 1 reference frame (avc1 / 0x31637661), yuv420p(tv, bt709, progressive, left), 1280x720 [SAR 1:1 DAR 16:9], 4034 kb/s, 25 fps, 25 tbr, 25k tbn, 50k tbc (default)
    Metadata:
      creation_time   : 2022-08-29T14:30:26.000000Z
      handler_name    : Core Media Video
[h264 @ 0x55644873bb00] Reinit context to 1280x720, pix_fmt: yuv420p
Input #1, mov,mp4,m4a,3gp,3g2,mj2, from '/var/www/html/project/static/images/templates/Codino.mp4':
  Metadata:
    major_brand     : mp42
    minor_version   : 1
    compatible_brands: isommp41mp42
    creation_time   : 2021-07-11T07:02:58.000000Z
  Duration: 00:00:02.00, start: 0.000000, bitrate: 1007 kb/s
    Stream #1:0(ita): Audio: aac (LC) (mp4a / 0x6134706D), 44100 Hz, stereo, fltp, 102 kb/s (default)
    Metadata:
      creation_time   : 2021-07-11T07:02:58.000000Z
      handler_name    : Core Media Audio
    Stream #1:1(und): Video: h264 (High), 1 reference frame (avc1 / 0x31637661), yuv420p(tv, bt709, progressive, left), 1280x720 [SAR 1:1 DAR 16:9], 813 kb/s, 25 fps, 25 tbr, 25k tbn, 50k tbc (default)
    Metadata:
      creation_time   : 2021-07-11T07:02:58.000000Z
      handler_name    : Core Media Video
[Parsed_scale_0 @ 0x55644882a6c0] w:1280 h:720 flags:'bilinear' interl:0
[Parsed_scale_2 @ 0x556448754e40] w:1280 h:720 flags:'bilinear' interl:0
Stream mapping:
  Stream #0:0 (aac) -> concat:in0:a0
  Stream #0:1 (h264) -> scale
  Stream #1:0 (aac) -> concat:in1:a0
  Stream #1:1 (h264) -> scale
  concat:out:v0 -> Stream #0:0 (libx264)
  concat:out:a0 -> Stream #0:1 (aac)
Press [q] to stop, [?] for help
[h264 @ 0x55644870e580] Reinit context to 1280x720, pix_fmt: yuv420p
[h264 @ 0x556448afc640] Reinit context to 1280x720, pix_fmt: yuv420p
[Parsed_scale_0 @ 0x556449a8c340] w:1280 h:720 flags:'bilinear' interl:0
[Parsed_scale_2 @ 0x556449a94840] w:1280 h:720 flags:'bilinear' interl:0
[graph 0 input from stream 0:1 @ 0x556449a97a00] w:1280 h:720 pixfmt:yuv420p tb:1/25000 fr:25/1 sar:1/1 sws_param:flags=2
[graph 0 input from stream 1:1 @ 0x556449a98a80] w:1280 h:720 pixfmt:yuv420p tb:1/25000 fr:25/1 sar:1/1 sws_param:flags=2
[graph_0_in_0_0 @ 0x556449a99a00] tb:1/48000 samplefmt:fltp samplerate:48000 chlayout:0x3
[graph_0_in_1_0 @ 0x556449a9ab40] tb:1/44100 samplefmt:fltp samplerate:44100 chlayout:0x3
[Parsed_concat_4 @ 0x556449a95a80] auto-inserting filter 'auto_resampler_0' between the filter 'graph_0_in_1_0' and the filter 'Parsed_concat_4'
[Parsed_scale_0 @ 0x556449a8c340] w:1280 h:720 fmt:yuv420p sar:1/1 -> w:1280 h:720 fmt:yuv420p sar:1/1 flags:0x2
[Parsed_setsar_1 @ 0x556449a940c0] w:1280 h:720 sar:1/1 dar:16/9 -> sar:1/1 dar:16/9
[Parsed_scale_2 @ 0x556449a94840] w:1280 h:720 fmt:yuv420p sar:1/1 -> w:1280 h:720 fmt:yuv420p sar:1/1 flags:0x2
[Parsed_setsar_3 @ 0x556449a94dc0] w:1280 h:720 sar:1/1 dar:16/9 -> sar:1/1 dar:16/9
[auto_resampler_0 @ 0x556449a9f240] ch:2 chl:stereo fmt:fltp r:44100Hz -> ch:2 chl:stereo fmt:fltp r:48000Hz
[libx264 @ 0x556448828300] using SAR=1/1
[libx264 @ 0x556448828300] using cpu capabilities: MMX2 SSE2Fast SSSE3 SSE4.2 AVX FMA3 BMI2 AVX2
[libx264 @ 0x556448828300] profile High, level 3.1
[libx264 @ 0x556448828300] 264 - core 155 r2917 0a84d98 - H.264/MPEG-4 AVC codec - Copyleft 2003-2018 - http://www.videolan.org/x264.html - options: cabac=1 ref=1 deblock=1:0:0 analyse=0x3:0x113 me=hex subme=2 psy=1 psy_rd=1.00:0.00 mixed_ref=0 me_range=16 chroma_me=1 trellis=0 8x8dct=1 cqm=0 deadzone=21,11 fast_pskip=1 chroma_qp_offset=0 threads=22 lookahead_threads=5 sliced_threads=0 nr=0 decimate=1 interlaced=0 bluray_compat=0 constrained_intra=0 bframes=3 b_pyramid=2 b_adapt=1 b_bias=0 direct=1 weightb=1 open_gop=0 weightp=1 keyint=250 keyint_min=25 scenecut=40 intra_refresh=0 rc_lookahead=10 rc=crf mbtree=1 crf=18.0 qcomp=0.60 qpmin=0 qpmax=69 qpstep=4 ip_ratio=1.40 aq=1:1.00
Output #0, mp4, to '/var/www/html/project/media/video/watermarks/20220829_Ancona_Recupero_Barca.mp4':
  Metadata:
    major_brand     : mp42
    minor_version   : 1
    compatible_brands: isommp41mp42
    encoder         : Lavf58.29.100
    Stream #0:0: Video: h264 (libx264), 1 reference frame (avc1 / 0x31637661), yuv420p(progressive), 1280x720 [SAR 1:1 DAR 16:9], q=-1--1, 25 fps, 12800 tbn, 25 tbc (default)
    Metadata:
      encoder         : Lavc58.54.100 libx264
    Side data:
      cpb: bitrate max/min/avg: 0/0/0 buffer size: 0 vbv_delay: -1
    Stream #0:1: Audio: aac (LC) (mp4a / 0x6134706D), 48000 Hz, stereo, fltp, delay 1024, 128 kb/s (default)
    Metadata:
      encoder         : Lavc58.54.100 aac
[Parsed_concat_4 @ 0x556449a95a80] EOF on in0:a0, 1 streams left in segment.
[Parsed_concat_4 @ 0x556449a95a80] EOF on in0:v0, 0 streams left in segment.
[Parsed_concat_4 @ 0x556449a95a80] Segment finished at pts=35817333
[Parsed_concat_4 @ 0x556449a95a80] EOF on in1:v0, 1 streams left in segment.
[Parsed_concat_4 @ 0x556449a95a80] EOF on in1:a0, 0 streams left in segment.
[Parsed_concat_4 @ 0x556449a95a80] Segment finished at pts=37836020
No more output streams to write to, finishing.
frame=  945 fps=219 q=-1.0 Lsize=   24457kB time=00:00:37.84 bitrate=5294.1kbits/s speed=8.78x    
[AVIOContext @ 0x5564486f4180] Statistics: 0 seeks, 9 writeouts
video:23843kB audio:585kB subtitle:0kB other streams:0kB global headers:0kB muxing overhead: 0.120591%
Input file #0 (/var/www/html/project/media/video/original/20220829_Ancona_Recupero_Barca.mp4):
  Input stream #0:0 (audio): 1681 packets read (282296 bytes); 1679 frames decoded (1719232 samples); 
  Input stream #0:1 (video): 895 packets read (18055751 bytes); 895 frames decoded; 
  Total: 2576 packets (18338047 bytes) demuxed
Input file #1 (/var/www/html/project/static/images/templates/Codino.mp4):
  Input stream #1:0 (audio): 89 packets read (26579 bytes); 87 frames decoded (89024 samples); 
  Input stream #1:1 (video): 50 packets read (203365 bytes); 50 frames decoded; 
  Total: 139 packets (229944 bytes) demuxed
Output file #0 (/var/www/html/project/media/video/watermarks/20220829_Ancona_Recupero_Barca.mp4):
  Output stream #0:0 (video): 945 frames encoded; 945 packets muxed (24414832 bytes); 
  Output stream #0:1 (audio): 1774 frames encoded (1816129 samples); 1775 packets muxed (599453 bytes); 
  Total: 2720 packets (25014285 bytes) muxed
[AVIOContext @ 0x556448829ec0] Statistics: 2 seeks, 99 writeouts
[libx264 @ 0x556448828300] frame I:5     Avg QP:13.65  size:125857
[libx264 @ 0x556448828300] frame P:259   Avg QP:18.20  size: 53999
[libx264 @ 0x556448828300] frame B:681   Avg QP:22.12  size: 14389
[libx264 @ 0x556448828300] consecutive B-frames:  2.1%  5.3%  0.3% 92.3%
[libx264 @ 0x556448828300] mb I  I16..4: 26.0% 16.0% 58.0%
[libx264 @ 0x556448828300] mb P  I16..4:  5.8% 12.0%  6.5%  P16..4: 31.6% 15.9% 13.2%  0.0%  0.0%    skip:15.0%
[libx264 @ 0x556448828300] mb B  I16..4:  0.9%  1.1%  0.3%  B16..8: 18.2%  9.7%  3.4%  direct:10.9%  skip:55.5%  L0:37.9% L1:34.1% BI:28.1%
[libx264 @ 0x556448828300] 8x8 transform intra:46.8% inter:53.8%
[libx264 @ 0x556448828300] coded y,uvDC,uvAC intra: 60.2% 58.3% 16.0% inter: 22.5% 10.7% 1.1%
[libx264 @ 0x556448828300] i16 v,h,dc,p: 28% 37% 27%  8%
[libx264 @ 0x556448828300] i8 v,h,dc,ddl,ddr,vr,hd,vl,hu: 15% 42% 25%  2%  3%  1%  7%  1%  5%
[libx264 @ 0x556448828300] i4 v,h,dc,ddl,ddr,vr,hd,vl,hu: 13% 47% 15%  4%  3%  3%  6%  3%  7%
[libx264 @ 0x556448828300] i8c dc,h,v,p: 46% 35% 14%  5%
[libx264 @ 0x556448828300] Weighted P-Frames: Y:2.3% UV:0.0%
[libx264 @ 0x556448828300] kb/s:5167.01
[aac @ 0x556448827d00] Qavg: 1352.964
[AVIOContext @ 0x5564486fd080] Statistics: 61125471 bytes read, 1777 seeks
[AVIOContext @ 0x556448748f80] Statistics: 1530915 bytes read, 42 seeks
